# xmcd CD database file
#
# Track frame offsets:
#	215
#	11460
#	27297
#	39800
#	51055
#	64260
#	77152
#	88050
#	101555
#	114100
#
# Disc length: 1694 seconds
#
# Revision: 0
# Processed by: cddbd v1.5.1PL0 Copyright (c) Steve Scherf et al.
# Submitted via: CDex 1.51
#
DISCID=6d069c0a
DTITLE=Eddy Raven - Greatest Country Hits
DYEAR=1900
DGENRE=Country
TTITLE0=I Got Mexico
TTITLE1=Shine, Shine, Shine
TTITLE2=I'm Gonna Get You
TTITLE3=She's Playing Hard To Forget
TTITLE4=Who Do You Know In California
TTITLE5=Good News Bad News
TTITLE6=Free To Be
TTITLE7=Ain't She Something Else
TTITLE8=The Last of The Sunshine Cowboys
TTITLE9=You're My Rainy Day Woman
EXTD=
EXTT0=
EXTT1=
EXTT2=
EXTT3=
EXTT4=
EXTT5=
EXTT6=
EXTT7=
EXTT8=
EXTT9=
PLAYORDER=
